<?xml version="1.0" standalone="no"?>
<!DOCTYPE svg PUBLIC "-//W3C//DTD SVG 20010904//EN"
 "http://www.w3.org/TR/2001/REC-SVG-20010904/DTD/svg10.dtd">
<svg version="1.0" xmlns="http://www.w3.org/2000/svg"
 width="1024.000000pt" height="1024.000000pt" viewBox="0 0 1024.000000 1024.000000"
 preserveAspectRatio="xMidYMid meet">

<g transform="translate(0.000000,1024.000000) scale(0.100000,-0.100000)"
fill="#000000" stroke="none">
<path d="M1895 8506 c-106 -34 -189 -115 -223 -220 l-22 -66 0 -3078 c0 -2037
4 -3092 11 -3121 26 -113 116 -228 216 -274 l48 -22 3150 -3 c2330 -2 3167 0
3217 8 112 19 224 113 270 228 l23 57 0 3130 0 3130 -27 50 c-36 68 -101 128
-173 162 l-60 28 -3195 2 c-2557 1 -3203 -1 -3235 -11z m6423 -155 c46 -24 97
-76 111 -114 8 -20 11 -962 11 -3113 0 -3018 0 -3086 -19 -3122 -25 -48 -77
-97 -123 -116 -33 -14 -363 -16 -3170 -16 -2178 0 -3145 3 -3171 11 -47 13
-112 70 -138 121 -19 37 -19 92 -19 3128 0 2698 2 3095 15 3119 20 40 73 91
110 107 25 11 594 13 3193 14 3095 0 3164 0 3200 -19z"/>
<path d="M2542 7959 c-141 -15 -214 -67 -274 -194 -28 -60 -33 -80 -32 -141 2
-145 67 -246 200 -310 l74 -35 508 3 c506 4 507 4 566 27 69 27 148 96 179
156 32 61 37 225 9 288 -39 88 -137 172 -227 195 -53 13 -896 22 -1003 11z
m1025 -181 c53 -35 73 -80 73 -161 0 -58 -3 -70 -32 -108 -64 -82 -39 -79
-596 -79 -468 0 -495 1 -530 19 -57 30 -86 81 -90 160 -5 88 24 146 88 179
l45 23 501 -3 500 -3 41 -27z"/>
<path d="M7261 7957 c-60 -15 -61 -22 -61 -340 l0 -288 25 -24 24 -25 306 0
306 0 25 25 25 25 -5 292 c-6 306 -11 337 -54 339 -128 5 -568 2 -591 -4z
m509 -332 l0 -195 -215 0 -215 0 0 190 0 190 203 3 c111 1 208 3 215 5 9 1 12
-42 12 -193z"/>
<path d="M2417 6879 c-36 -12 -66 -33 -98 -67 -86 -89 -79 108 -79 -2219 0
-2293 -6 -2099 68 -2177 20 -21 56 -47 80 -57 41 -18 134 -19 2630 -26 1423
-4 2634 -7 2691 -6 69 1 119 7 147 18 56 21 118 91 133 150 8 31 11 624 11
2117 l0 2074 -26 52 c-30 60 -79 106 -143 135 -46 21 -50 21 -2704 22 -2510 2
-2661 1 -2710 -16z m1931 -388 c2 -197 -1 -256 -10 -263 -7 -4 -442 -7 -966
-6 -811 1 -956 3 -968 15 -11 12 -14 53 -14 206 0 166 3 198 19 233 37 80 -47
74 1001 72 l935 -3 3 -254z m1392 -193 l0 -451 -25 -33 c-43 -56 -75 -59 -641
-58 -355 1 -507 5 -522 13 -51 27 -52 36 -52 526 l0 455 620 0 620 0 0 -452z
m2046 433 c57 -35 64 -66 64 -290 0 -181 -2 -201 -17 -209 -11 -6 -430 -10
-983 -11 l-965 -1 3 265 3 265 932 0 c894 0 933 -1 963 -19z m-3447 -667 c3
-3 9 -63 12 -132 5 -103 10 -135 27 -169 51 -99 151 -154 286 -156 l76 -2 0
-242 c0 -161 4 -250 12 -267 14 -32 40 -49 101 -66 26 -7 47 -18 48 -24 1 -6
0 -62 -1 -123 -2 -98 1 -119 20 -158 12 -25 36 -53 56 -66 30 -18 46 -20 142
-17 180 5 204 33 210 238 3 79 8 128 16 133 6 4 27 12 48 17 20 6 50 26 67 45
l31 36 0 248 0 249 68 1 c225 2 335 121 331 361 l-2 95 394 5 c217 3 657 5
979 5 l585 -1 5 -1065 c3 -585 3 -1381 1 -1768 l-4 -703 -23 -27 -22 -27
-2676 -1 -2676 -2 -27 23 -28 24 -3 1764 c-1 969 0 1768 2 1773 4 11 1934 10
1945 -1z m1001 -671 l0 -218 -223 1 -222 1 -3 211 c-2 194 -1 211 15 215 10 3
111 5 226 6 l207 1 0 -217z m-160 -485 l0 -113 -71 -1 c-58 -2 -69 1 -65 13 3
8 6 59 6 114 l0 99 65 0 65 0 0 -112z"/>
<path d="M5060 4519 c-211 -83 -740 -319 -760 -339 l-25 -25 0 -502 0 -503
-658 0 c-726 0 -698 2 -737 -63 -18 -28 -20 -51 -20 -202 0 -191 9 -223 69
-258 30 -18 109 -19 2187 -18 2389 1 2205 -4 2238 66 13 26 16 69 16 208 0 97
-4 187 -10 201 -5 14 -24 35 -42 46 -32 19 -51 20 -698 20 l-665 0 3 492 c1
271 0 503 -3 515 -3 14 -23 32 -53 47 -64 32 -640 273 -724 302 -74 26 -82 27
-118 13z m188 -198 c59 -27 175 -77 257 -111 83 -35 154 -66 158 -70 5 -4 -36
-24 -90 -45 -54 -21 -175 -68 -268 -106 -94 -38 -178 -69 -188 -69 -27 0 -564
217 -555 225 3 2 485 205 518 218 34 13 66 5 168 -42z m-760 -310 c20 -10 145
-62 277 -116 132 -53 250 -103 263 -111 l22 -14 0 -391 c0 -309 -3 -390 -12
-386 -7 3 -139 58 -293 122 -154 64 -290 119 -302 122 l-23 5 0 394 c0 438 -5
412 68 375z m1332 -362 c0 -360 -3 -419 -24 -419 -9 0 -547 -214 -593 -236
-10 -5 -13 73 -13 374 0 209 3 388 6 397 9 22 36 35 339 156 195 78 271 105
277 96 4 -7 8 -172 8 -368z m-955 -744 c157 -66 221 -87 255 -87 34 -1 102 23
275 93 l230 94 800 -5 800 -5 -1 -45 c0 -25 -1 -79 -2 -120 l-2 -75 -2110 0
-2110 0 0 122 0 123 808 2 c444 2 816 0 827 -4 11 -3 115 -45 230 -93z"/>
</g>
</svg>
