<?xml version="1.0" standalone="no"?>
<!DOCTYPE svg PUBLIC "-//W3C//DTD SVG 20010904//EN"
 "http://www.w3.org/TR/2001/REC-SVG-20010904/DTD/svg10.dtd">
<svg version="1.0" xmlns="http://www.w3.org/2000/svg"
 width="1024.000000pt" height="1024.000000pt" viewBox="0 0 1024.000000 1024.000000"
 preserveAspectRatio="xMidYMid meet">

<g transform="translate(0.000000,1024.000000) scale(0.100000,-0.100000)"
fill="#000000" stroke="none">
<path d="M7075 8334 c-186 -97 -569 -308 -890 -489 -154 -87 -317 -178 -363
-202 -45 -25 -86 -52 -91 -61 -4 -10 -7 -397 -6 -862 l3 -844 28 -24 c16 -13
73 -49 127 -79 83 -46 104 -54 132 -49 44 9 85 42 85 70 0 38 -26 61 -124 111
l-96 49 0 728 c0 400 3 728 6 728 4 0 77 -42 163 -94 86 -51 253 -145 371
-209 118 -63 250 -136 293 -161 43 -25 108 -61 145 -80 37 -18 101 -53 142
-78 69 -41 75 -48 78 -80 l3 -35 -87 -11 c-47 -7 -93 -17 -100 -23 -10 -8 -14
-40 -14 -118 l0 -107 -45 -22 c-73 -36 -97 -30 -177 44 -29 27 -57 44 -72 44
-44 0 -190 -135 -267 -246 -44 -65 -99 -187 -99 -223 0 -28 7 -33 98 -78 l97
-48 -3 -105 c-2 -58 -8 -110 -14 -117 -5 -7 -44 -20 -86 -29 -131 -29 -147
-71 -92 -235 53 -159 113 -258 206 -342 52 -46 75 -47 165 -2 39 19 75 35 80
35 5 0 41 -19 80 -42 69 -42 71 -44 65 -78 -3 -19 -8 -62 -12 -95 -6 -54 -4
-62 17 -81 77 -70 420 -99 569 -48 l55 19 0 124 0 124 73 25 c40 13 83 21 95
18 12 -3 46 -26 75 -51 77 -65 91 -66 159 -14 31 24 72 63 92 86 99 118 196
327 174 376 -6 13 -46 42 -92 66 -45 24 -86 50 -92 57 -7 9 -9 47 -4 118 l7
104 57 25 c31 14 65 28 77 31 34 10 65 51 71 93 12 87 -92 270 -221 390 -99
92 -105 94 -156 50 -89 -76 -145 -85 -222 -35 -47 31 -50 34 -44 68 3 19 8 70
12 112 l7 76 -54 16 c-29 9 -60 16 -69 16 -9 0 -40 7 -68 15 -44 13 -52 20
-52 39 0 19 13 31 58 56 31 18 111 67 177 110 160 103 356 219 545 323 85 47
207 116 270 155 l115 70 2 -137 c2 -75 4 -402 5 -726 l3 -590 -93 -60 c-170
-110 -207 -164 -139 -205 17 -11 42 -20 55 -20 21 0 136 62 263 141 25 16 51
40 57 54 9 19 12 252 12 874 0 795 -1 849 -17 863 -10 8 -70 42 -133 75 -331
174 -467 248 -695 378 -137 78 -279 157 -315 175 -36 18 -101 54 -146 81 -109
67 -131 69 -219 23z m254 -225 c91 -51 240 -132 331 -181 91 -50 211 -117 268
-150 57 -33 171 -98 255 -143 83 -45 152 -86 154 -92 2 -5 -41 -33 -94 -63
-133 -73 -619 -352 -702 -402 -36 -23 -132 -78 -214 -123 l-147 -83 -153 83
c-83 45 -215 118 -292 162 -135 78 -534 299 -682 379 -40 21 -73 42 -73 45 0
3 145 86 323 184 177 98 421 233 543 301 121 67 238 133 260 147 21 14 43 26
48 26 5 1 83 -40 175 -90z m-89 -1629 c25 -6 55 -12 68 -15 20 -5 22 -11 22
-66 0 -83 19 -123 76 -156 25 -16 72 -45 104 -66 77 -51 109 -55 203 -23 43
14 83 26 91 26 29 0 116 -137 116 -183 0 -19 -11 -31 -54 -53 -88 -46 -99 -74
-102 -260 l-2 -153 28 -45 c16 -25 47 -57 69 -71 22 -15 42 -32 44 -40 9 -21
-39 -111 -83 -159 l-41 -45 -86 45 c-97 51 -113 51 -178 3 -53 -39 -120 -69
-155 -69 -16 0 -41 -10 -56 -23 -24 -21 -27 -31 -31 -114 l-6 -91 -59 -12
c-33 -6 -79 -9 -102 -5 -114 17 -126 25 -126 91 0 25 -5 65 -11 90 -11 41 -16
47 -73 75 -33 17 -85 46 -115 66 -70 47 -121 53 -207 23 -63 -21 -66 -21 -80
-3 -28 35 -58 99 -74 158 l-17 59 51 31 c27 16 65 49 83 73 31 41 32 45 31
135 0 51 4 111 11 135 11 38 10 48 -8 86 -12 23 -46 69 -77 102 l-55 59 23 43
c13 24 43 66 68 94 l46 51 81 -44 c76 -41 83 -43 119 -33 56 17 185 63 211 76
35 17 63 85 63 150 0 45 3 57 18 61 32 9 126 7 172 -3z"/>
<path d="M7087 6050 c-110 -20 -200 -87 -249 -188 -31 -63 -33 -73 -32 -172 0
-125 17 -172 88 -248 104 -111 297 -147 429 -81 98 50 171 132 203 228 15 46
15 63 5 133 -20 147 -83 243 -195 298 -69 34 -164 46 -249 30z m138 -161 c80
-22 137 -88 151 -177 7 -44 -20 -119 -59 -160 -62 -67 -166 -84 -252 -42 -117
56 -140 216 -46 321 54 61 124 80 206 58z"/>
<path d="M4925 7685 c-80 -28 -89 -88 -23 -144 58 -49 181 -171 177 -175 -2
-2 -37 2 -77 7 -95 14 -277 -2 -472 -42 -176 -36 -272 -67 -409 -132 -521
-246 -919 -711 -1085 -1265 -50 -167 -85 -395 -86 -548 0 -75 27 -140 62 -152
43 -13 112 67 104 121 -7 52 14 255 40 380 123 587 484 1054 1019 1316 207
101 420 148 687 152 106 1 161 -2 168 -9 9 -9 -6 -25 -56 -65 -111 -90 -114
-93 -114 -143 0 -56 32 -86 92 -86 36 0 48 9 191 146 187 179 207 204 207 260
0 34 -7 51 -39 91 -74 92 -304 303 -329 303 -9 -1 -35 -7 -57 -15z"/>
<path d="M3025 4924 c-33 -20 -141 -80 -240 -134 -99 -54 -295 -162 -435 -240
-225 -126 -404 -223 -593 -323 -107 -56 -97 38 -95 -904 l2 -824 33 -30 c19
-16 66 -46 106 -65 40 -20 122 -64 182 -98 61 -35 151 -84 200 -111 162 -87
449 -247 475 -265 14 -10 72 -44 130 -75 58 -32 148 -84 200 -116 53 -32 108
-61 123 -64 31 -8 105 30 460 242 115 68 349 200 520 295 410 225 445 245 462
271 12 19 15 147 18 842 l4 819 -26 24 c-14 14 -89 59 -166 101 -77 43 -205
114 -285 158 -80 44 -224 123 -320 176 -96 52 -281 154 -410 226 -129 72 -246
131 -260 131 -14 0 -52 -16 -85 -36z m232 -217 c82 -46 236 -130 343 -187 107
-57 267 -145 355 -195 88 -51 204 -116 258 -145 54 -29 95 -56 90 -60 -9 -8
-88 -54 -433 -247 -509 -286 -687 -387 -714 -406 l-29 -21 -46 25 c-25 14
-237 133 -471 265 -234 132 -470 264 -525 294 -166 88 -169 90 -148 105 10 7
124 70 253 140 129 70 240 131 245 135 6 4 127 72 270 150 143 79 289 162 325
186 36 23 68 43 72 43 5 1 74 -37 155 -82z m1158 -1423 l-2 -716 -122 -64
c-188 -98 -702 -387 -959 -538 -73 -44 -134 -77 -135 -75 -1 2 -1 321 1 709
l4 705 91 54 c118 70 327 188 592 333 116 64 282 159 370 212 88 53 161 96
161 96 1 0 0 -322 -1 -716z m-2469 640 c60 -36 177 -102 259 -146 184 -99 594
-329 733 -412 l102 -61 0 -626 c0 -344 3 -660 6 -702 5 -59 4 -77 -6 -77 -7 0
-80 40 -164 89 -203 119 -584 332 -843 472 l-212 114 -1 708 c0 395 4 707 9
707 5 0 57 -30 117 -66z"/>
<path d="M7115 4572 c-41 -34 -46 -51 -55 -171 -17 -215 -69 -416 -155 -598
-143 -302 -436 -618 -741 -799 -301 -179 -741 -289 -1076 -270 -96 6 -122 4
-147 -9 -64 -33 -78 -92 -29 -128 23 -17 47 -21 176 -25 291 -9 586 45 876
160 518 205 955 644 1150 1156 64 167 115 422 116 574 0 57 -4 71 -26 97 -29
35 -59 39 -89 13z"/>
</g>
</svg>
