<?xml version="1.0" standalone="no"?>
<!DOCTYPE svg PUBLIC "-//W3C//DTD SVG 20010904//EN"
 "http://www.w3.org/TR/2001/REC-SVG-20010904/DTD/svg10.dtd">
<svg version="1.0" xmlns="http://www.w3.org/2000/svg"
 width="1024.000000pt" height="1024.000000pt" viewBox="0 0 1024.000000 1024.000000"
 preserveAspectRatio="xMidYMid meet">

<g transform="translate(0.000000,1024.000000) scale(0.100000,-0.100000)"
fill="#000000" stroke="none">
<path d="M5682 8545 c-158 -35 -321 -151 -423 -301 -27 -41 -59 -76 -71 -80
-13 -3 -165 -71 -338 -149 -173 -78 -486 -220 -695 -314 -209 -95 -533 -242
-720 -326 -187 -85 -387 -170 -445 -190 -217 -76 -327 -140 -429 -252 -69 -75
-141 -208 -166 -308 -19 -76 -20 -301 -1 -370 59 -219 197 -392 382 -481 50
-24 95 -49 101 -56 5 -7 38 -76 73 -153 35 -77 92 -201 128 -275 93 -195 142
-299 162 -345 10 -22 95 -204 190 -405 95 -201 198 -421 230 -490 32 -69 120
-255 195 -415 75 -159 178 -378 228 -485 l92 -195 3 -116 c4 -115 3 -116 -20
-122 -13 -4 -274 -7 -582 -7 l-558 0 -60 -32 c-43 -23 -70 -47 -99 -87 -66
-92 -69 -112 -69 -489 l0 -334 34 -34 34 -34 1827 0 1827 0 29 29 29 29 0 334
c0 360 -4 398 -55 477 -30 48 -88 99 -139 122 -36 16 -70 19 -296 19 -140 0
-261 4 -267 8 -9 6 -13 101 -16 382 -3 347 -5 381 -25 455 -36 134 -104 251
-298 515 -99 135 -245 335 -325 445 -80 110 -255 351 -389 535 -134 184 -302
416 -374 515 -72 99 -201 276 -288 394 -87 118 -155 217 -153 222 3 4 130 85
283 180 152 95 482 301 732 458 250 156 488 305 528 330 l73 45 87 -24 c66
-17 119 -23 220 -25 l133 -3 77 -73 c42 -41 200 -191 351 -334 151 -143 308
-292 349 -330 l73 -70 15 -80 c10 -50 29 -105 52 -147 l36 -67 -72 -293 c-40
-161 -72 -311 -72 -333 0 -22 9 -54 19 -71 12 -20 119 -100 294 -222 324 -224
354 -242 396 -242 68 0 104 80 63 143 -10 15 -70 62 -133 105 -312 210 -449
306 -449 316 0 11 112 478 117 485 1 2 24 -5 50 -15 35 -13 73 -19 138 -19 83
1 97 4 165 36 91 43 158 107 196 187 15 31 29 58 30 60 1 2 104 -49 228 -113
l226 -117 0 -37 c0 -21 -11 -163 -25 -315 -32 -356 -32 -350 4 -387 46 -46
110 -38 139 18 10 19 72 675 72 763 0 58 -48 92 -344 248 l-279 147 -24 64
c-56 150 -168 249 -324 285 -33 8 -62 16 -64 18 -1 2 -101 138 -221 303 -120
165 -272 374 -338 465 -202 277 -186 248 -186 354 0 184 -70 347 -210 486 -98
99 -207 161 -325 185 -87 18 -259 18 -343 0z m334 -196 c250 -77 400 -346 339
-607 -44 -186 -196 -341 -385 -392 -60 -16 -172 -16 -240 0 -125 29 -264 129
-326 236 -146 249 -36 604 230 734 125 62 244 71 382 29z m-881 -507 c19 -218
72 -343 200 -473 l55 -55 -163 -104 c-89 -57 -225 -142 -302 -190 -77 -48
-284 -177 -460 -287 -545 -340 -598 -373 -606 -367 -5 3 -9 35 -9 72 0 111
-33 245 -87 352 -39 79 -62 110 -138 185 -57 58 -113 102 -153 124 -42 22 -60
37 -54 43 6 6 124 61 263 124 464 209 749 338 1093 495 188 85 344 154 348
152 3 -2 9 -34 13 -71z m1566 -589 c198 -271 385 -541 378 -547 -2 -1 -27 -19
-55 -39 -28 -20 -63 -55 -78 -77 -14 -22 -33 -40 -41 -40 -9 0 -120 100 -248
222 -127 122 -283 270 -344 329 -62 59 -113 112 -113 118 0 6 19 20 43 32 56
29 164 141 207 217 19 34 38 62 41 62 3 0 98 -125 210 -277z m-3463 -278 c183
-43 334 -187 393 -375 25 -80 27 -218 4 -304 -47 -178 -183 -321 -364 -383
-88 -30 -233 -32 -315 -3 -146 50 -271 154 -328 272 -108 221 -63 487 108 647
80 75 138 109 233 138 89 26 181 29 269 8z m4194 -462 c87 -61 124 -163 95
-263 -32 -111 -114 -171 -232 -172 -108 0 -190 62 -220 167 -31 107 13 220
108 275 47 28 59 31 127 28 66 -3 81 -7 122 -35z m-3589 -530 c35 -54 153
-218 263 -364 262 -351 388 -521 779 -1054 92 -126 203 -277 246 -335 43 -58
79 -111 79 -119 0 -14 -7 -14 -110 8 -67 15 -226 13 -302 -4 -193 -41 -370
-160 -487 -329 -62 -90 -92 -156 -115 -251 -27 -112 -26 -109 -41 -94 -8 8
-50 95 -95 194 -45 99 -180 389 -300 645 -565 1203 -649 1384 -645 1390 3 4
33 10 68 14 214 22 457 178 560 358 12 21 25 38 29 38 3 0 35 -44 71 -97z
m1291 -2053 c211 -54 364 -197 444 -415 26 -69 26 -75 30 -409 2 -186 1 -350
-2 -362 l-6 -24 -614 0 -613 0 -6 152 c-4 83 -7 230 -7 327 0 205 11 266 72
391 53 111 178 239 280 288 144 70 284 87 422 52z m1203 -1444 l37 -33 4 -246
c3 -135 2 -261 -2 -281 l-7 -36 -1688 0 c-1531 0 -1689 1 -1695 16 -10 25 -6
475 4 519 5 24 21 51 40 68 l30 27 1620 0 1620 0 37 -34z"/>
</g>
</svg>
