<?xml version="1.0" standalone="no"?>
<!DOCTYPE svg PUBLIC "-//W3C//DTD SVG 20010904//EN"
 "http://www.w3.org/TR/2001/REC-SVG-20010904/DTD/svg10.dtd">
<svg version="1.0" xmlns="http://www.w3.org/2000/svg"
 width="1024.000000pt" height="1024.000000pt" viewBox="0 0 1024.000000 1024.000000"
 preserveAspectRatio="xMidYMid meet">

<g transform="translate(0.000000,1024.000000) scale(0.100000,-0.100000)"
fill="#000000" stroke="none">
<path d="M6377 8000 c-33 -26 -36 -69 -6 -96 20 -18 40 -19 310 -19 159 0 289
-3 289 -6 0 -14 -458 -474 -596 -598 -656 -592 -1362 -1098 -2124 -1523 -508
-284 -1120 -548 -1544 -669 -77 -21 -148 -47 -158 -56 -25 -22 -24 -79 1 -93
31 -16 59 -12 194 25 395 108 1090 409 1570 679 952 537 1744 1131 2450 1836
l297 297 0 -314 c0 -300 1 -314 20 -333 26 -26 64 -25 90 2 19 21 20 33 20
424 l0 403 -24 28 -24 28 -369 3 c-363 3 -370 2 -396 -18z"/>
<path d="M6628 6645 c-16 -9 -31 -30 -39 -52 -10 -30 -11 -457 -6 -2045 l7
-2008 -174 0 -174 0 -3 1583 c-4 1513 -5 1584 -22 1611 -37 56 -49 57 -503 54
l-416 -3 -29 -33 -29 -32 0 -1590 0 -1590 -173 0 -174 0 -6 812 c-4 446 -7
979 -7 1184 0 397 -1 409 -49 441 -24 16 -63 18 -431 21 -348 2 -411 1 -443
-13 -72 -30 -67 58 -67 -1260 l0 -1185 -175 0 -175 0 0 899 c0 495 -3 907 -6
916 -17 43 -41 45 -489 45 -448 0 -472 -2 -489 -45 -3 -9 -6 -421 -6 -916 l0
-899 -172 0 c-95 0 -178 -4 -185 -8 -6 -4 -17 -20 -22 -35 -9 -24 -8 -31 14
-53 l24 -24 2885 0 c1828 0 2894 4 2910 10 33 12 43 52 22 85 l-16 25 -198 0
-197 0 -1 2018 c0 1510 -4 2024 -12 2045 -23 55 -40 57 -514 57 -359 -1 -438
-3 -460 -15z m855 -222 c4 -58 7 -956 7 -1995 l0 -1888 -387 0 -388 0 -3 1995
-3 1995 384 0 384 0 6 -107z m-1381 -965 c2 -106 5 -806 6 -1555 l3 -1363
-371 0 -370 0 0 1555 0 1555 364 0 364 0 4 -192z m-1352 -985 c0 -219 3 -743
7 -1165 l6 -768 -374 0 -374 0 2 1158 c1 636 2 1160 2 1165 1 4 165 7 366 7
l365 0 0 -397z m-1330 -1065 l0 -868 -375 0 -375 0 0 863 c0 475 2 866 4 868
2 2 171 4 375 4 l371 0 0 -867z"/>
</g>
</svg>
