<?xml version="1.0" standalone="no"?>
<!DOCTYPE svg PUBLIC "-//W3C//DTD SVG 20010904//EN"
 "http://www.w3.org/TR/2001/REC-SVG-20010904/DTD/svg10.dtd">
<svg version="1.0" xmlns="http://www.w3.org/2000/svg"
 width="1024.000000pt" height="1024.000000pt" viewBox="0 0 1024.000000 1024.000000"
 preserveAspectRatio="xMidYMid meet">

<g transform="translate(0.000000,1024.000000) scale(0.100000,-0.100000)"
fill="#000000" stroke="none">
<path d="M5102 8594 c-21 -14 -22 -22 -22 -149 0 -108 3 -137 16 -149 22 -22
41 -20 59 8 13 19 15 49 13 151 -3 116 -5 129 -23 141 -18 12 -24 11 -43 -2z"/>
<path d="M5096 8084 c-13 -12 -16 -41 -16 -152 l0 -138 -1172 -669 c-645 -368
-1197 -684 -1225 -702 l-53 -33 0 -1378 0 -1379 23 -20 c12 -11 296 -176 631
-368 334 -191 874 -502 1200 -690 l591 -343 6 -146 c6 -167 15 -190 65 -167
l26 12 -3 150 -4 151 215 125 c213 124 1434 827 1935 1115 143 82 268 157 278
165 16 15 17 94 17 1394 l0 1378 -25 19 c-14 11 -563 327 -1220 703 l-1195
683 0 137 c0 112 -3 141 -16 153 -8 9 -22 16 -29 16 -7 0 -21 -7 -29 -16z
m1154 -1089 c616 -352 1120 -642 1120 -645 0 -7 -89 -58 -980 -570 -371 -213
-808 -464 -972 -558 l-296 -170 -84 48 c-227 132 -1506 867 -1815 1043 -194
111 -352 204 -352 207 0 7 2242 1288 2251 1286 4 0 512 -289 1128 -641z
m-3110 -985 c184 -106 551 -317 815 -469 264 -153 616 -355 782 -451 l303
-174 2 -1250 c2 -688 3 -1252 3 -1253 0 -1 -59 32 -130 74 -229 133 -813 470
-1440 830 -335 193 -627 361 -647 373 l-38 22 0 1250 c0 687 3 1247 8 1245 4
-3 158 -91 342 -197z m4310 -1049 l0 -1250 -92 -54 c-51 -30 -541 -312 -1088
-627 -547 -315 -1012 -584 -1032 -597 l-38 -23 0 1252 c0 1236 0 1253 20 1265
11 7 507 292 1102 634 596 342 1092 628 1103 635 11 8 21 14 22 14 2 0 3 -562
3 -1249z"/>
<path d="M1734 6919 c-27 -30 -13 -45 127 -127 139 -81 174 -88 174 -37 0 28
-9 35 -135 108 -74 42 -138 77 -141 77 -3 0 -14 -9 -25 -21z"/>
<path d="M8340 6861 c-125 -71 -135 -79 -135 -106 0 -51 33 -44 176 37 144 82
166 108 111 137 -14 7 -49 -9 -152 -68z"/>
<path d="M2212 6648 c-17 -17 -15 -42 6 -60 26 -24 249 -148 265 -148 19 0 37
21 37 45 0 16 -29 38 -135 98 -74 42 -141 77 -148 77 -7 0 -18 -5 -25 -12z"/>
<path d="M7855 6585 c-92 -53 -131 -81 -133 -95 -4 -25 14 -50 35 -50 8 0 73
33 144 73 92 51 131 78 135 95 7 26 -11 52 -35 52 -9 -1 -74 -34 -146 -75z"/>
<path d="M2341 3497 c-68 -40 -129 -80 -135 -89 -14 -22 2 -52 30 -56 16 -2
157 70 262 135 36 22 24 85 -17 82 -9 -1 -72 -33 -140 -72z"/>
<path d="M7730 3556 c-29 -36 -9 -58 125 -133 72 -40 138 -73 147 -73 23 0 42
35 29 57 -10 18 -256 163 -276 163 -7 0 -18 -7 -25 -14z"/>
<path d="M1870 3225 c-136 -78 -159 -98 -144 -123 21 -33 56 -24 184 51 116
67 125 74 125 102 0 50 -35 44 -165 -30z"/>
<path d="M8204 3276 c-3 -8 -4 -23 -2 -33 4 -21 242 -163 275 -163 24 0 46 30
38 52 -8 20 -255 158 -282 158 -13 0 -26 -6 -29 -14z"/>
<path d="M5096 1688 c-23 -33 -23 -289 0 -312 18 -19 28 -20 55 -6 17 10 19
23 19 165 0 142 -2 155 -19 165 -28 15 -38 13 -55 -12z"/>
</g>
</svg>
