<?xml version="1.0" standalone="no"?>
<!DOCTYPE svg PUBLIC "-//W3C//DTD SVG 20010904//EN"
 "http://www.w3.org/TR/2001/REC-SVG-20010904/DTD/svg10.dtd">
<svg version="1.0" xmlns="http://www.w3.org/2000/svg"
 width="1024.000000pt" height="1024.000000pt" viewBox="0 0 1024.000000 1024.000000"
 preserveAspectRatio="xMidYMid meet">

<g transform="translate(0.000000,1024.000000) scale(0.100000,-0.100000)"
fill="#000000" stroke="none">
<path d="M5065 8417 c-51 -37 -477 -269 -630 -343 -591 -286 -1199 -460 -1855
-530 -85 -9 -167 -23 -182 -30 -62 -32 -59 28 -55 -1122 3 -890 6 -1063 20
-1157 80 -557 232 -994 496 -1424 182 -296 377 -539 670 -832 393 -392 723
-641 1335 -1008 266 -158 255 -156 394 -74 272 159 679 425 867 566 247 185
555 461 738 662 300 329 524 649 682 977 159 332 258 657 327 1083 22 138 22
155 25 1207 l4 1066 -31 36 c-26 29 -39 36 -83 40 -479 52 -611 73 -892 143
-506 126 -1036 345 -1545 638 -194 112 -246 130 -285 102z m227 -318 c726
-408 1367 -632 2113 -738 77 -11 173 -23 213 -27 l73 -7 -4 -971 c-3 -832 -6
-987 -20 -1086 -102 -712 -325 -1229 -764 -1771 -129 -159 -472 -507 -628
-638 -257 -215 -647 -489 -991 -695 l-162 -97 -193 117 c-554 335 -881 584
-1239 943 -334 335 -486 522 -653 801 -283 474 -435 960 -477 1530 -7 104 -10
434 -8 1010 l3 854 120 13 c465 51 1009 189 1479 375 192 76 631 291 831 407
66 38 125 69 132 70 7 1 85 -40 175 -90z"/>
<path d="M6446 6528 c-39 -38 -669 -786 -1465 -1738 -112 -135 -207 -248 -211
-253 -3 -4 -197 205 -431 465 -233 259 -433 480 -443 490 -14 12 -35 18 -69
18 -102 0 -143 -99 -74 -177 163 -185 488 -549 699 -785 267 -297 280 -308
341 -293 26 7 62 49 922 1074 160 190 430 510 599 711 169 201 312 376 317
389 14 36 -7 89 -45 112 -49 30 -100 25 -140 -13z"/>
</g>
</svg>
