<?xml version="1.0" standalone="no"?>
<!DOCTYPE svg PUBLIC "-//W3C//DTD SVG 20010904//EN"
 "http://www.w3.org/TR/2001/REC-SVG-20010904/DTD/svg10.dtd">
<svg version="1.0" xmlns="http://www.w3.org/2000/svg"
 width="1024.000000pt" height="1024.000000pt" viewBox="0 0 1024.000000 1024.000000"
 preserveAspectRatio="xMidYMid meet">

<g transform="translate(0.000000,1024.000000) scale(0.100000,-0.100000)"
fill="#000000" stroke="none">
<path d="M4397 8389 c-206 -17 -543 -90 -707 -153 -136 -53 -353 -167 -486
-255 -328 -218 -606 -521 -799 -869 -205 -373 -318 -811 -316 -1235 0 -301 35
-508 133 -806 129 -392 333 -711 644 -1011 299 -289 645 -490 1031 -599 301
-85 481 -106 818 -98 191 5 226 8 380 41 280 58 449 115 695 235 58 28 106 51
108 51 1 0 2 -65 2 -145 l0 -145 -266 0 -266 0 -34 -34 c-39 -39 -45 -85 -17
-126 9 -14 118 -146 242 -295 124 -148 325 -389 446 -535 122 -146 268 -323
326 -395 90 -112 110 -131 143 -140 54 -13 76 2 175 125 91 112 370 450 721
874 314 378 310 372 310 415 0 20 -7 47 -16 59 -34 49 -55 52 -329 52 l-256 0
6 1183 c4 650 7 1272 8 1382 0 110 -5 239 -12 287 -17 129 -76 376 -117 497
-149 437 -461 853 -864 1155 -165 123 -235 166 -415 252 -300 144 -579 211
-965 234 -192 11 -183 11 -323 -1z m563 -233 c472 -73 985 -345 1310 -693 308
-331 512 -730 584 -1145 25 -144 38 -343 30 -485 l-7 -132 -459 -3 -460 -3
-29 -33 -29 -32 0 -835 0 -835 -69 -45 c-172 -111 -415 -215 -637 -271 -218
-55 -332 -69 -569 -68 -383 0 -684 69 -1020 233 -467 228 -852 615 -1081 1086
-163 336 -233 670 -221 1050 12 358 78 625 232 940 129 262 283 475 485 668
201 193 389 319 643 432 244 108 438 158 742 189 83 9 464 -4 555 -18z m1910
-3787 l0 -1111 34 -34 c22 -22 44 -34 63 -35 15 0 108 0 206 -1 97 0 177 -2
177 -4 0 -2 -102 -127 -227 -277 -126 -151 -316 -380 -423 -509 -107 -130
-198 -237 -202 -237 -4 -1 -50 50 -102 112 -162 193 -756 908 -756 910 0 1 84
3 188 4 103 1 193 3 200 3 8 0 29 15 48 34 l34 34 0 1111 0 1111 380 0 380 0
0 -1111z"/>
<path d="M4558 7525 c-46 -26 -53 -50 -58 -200 l-5 -140 -65 -8 c-274 -34
-516 -232 -606 -497 -15 -44 -19 -83 -18 -195 0 -127 2 -146 27 -208 33 -85
72 -141 140 -203 98 -89 196 -136 440 -210 l87 -26 0 -499 0 -499 -27 6 c-180
41 -266 81 -357 168 -40 38 -81 92 -111 144 -51 90 -65 102 -120 102 -29 0
-45 -8 -71 -34 -47 -47 -44 -75 18 -198 92 -180 235 -300 435 -368 49 -16 122
-35 161 -42 l72 -12 0 -144 0 -144 34 -34 c28 -28 42 -34 75 -34 94 0 121 53
121 234 l0 123 58 7 c85 10 240 66 325 119 148 92 267 252 303 403 23 99 16
307 -14 388 -28 77 -92 174 -150 228 -101 95 -192 143 -393 209 l-129 43 0
473 c0 260 1 473 3 473 21 0 127 -40 181 -68 88 -46 160 -117 216 -210 45 -76
66 -92 122 -92 47 0 98 56 98 108 0 191 -271 426 -550 477 -75 14 -70 5 -70
133 0 133 -10 179 -44 211 -31 29 -92 36 -128 16z m-58 -1010 c0 -245 -2 -445
-4 -445 -18 0 -223 78 -267 101 -74 39 -143 109 -177 178 -24 50 -27 67 -27
161 0 113 13 158 72 243 66 95 263 202 381 206 l22 1 0 -445z m306 -769 c255
-87 391 -228 402 -417 6 -101 -8 -152 -68 -243 -90 -137 -191 -203 -364 -235
l-46 -8 0 463 c0 255 1 464 3 464 2 0 35 -11 73 -24z"/>
</g>
</svg>
