<?xml version="1.0" standalone="no"?>
<!DOCTYPE svg PUBLIC "-//W3C//DTD SVG 20010904//EN"
 "http://www.w3.org/TR/2001/REC-SVG-20010904/DTD/svg10.dtd">
<svg version="1.0" xmlns="http://www.w3.org/2000/svg"
 width="1024.000000pt" height="1024.000000pt" viewBox="0 0 1024.000000 1024.000000"
 preserveAspectRatio="xMidYMid meet">

<g transform="translate(0.000000,1024.000000) scale(0.100000,-0.100000)"
fill="#000000" stroke="none">
<path d="M2302 8630 c-228 -60 -411 -233 -490 -465 l-27 -80 0 -2265 c0 -2540
-7 -2306 74 -2475 98 -206 292 -364 521 -427 l85 -23 2106 0 c2058 0 2107 0
2128 19 32 29 29 88 -5 115 l-27 21 -2082 0 c-2022 0 -2084 1 -2157 19 -128
33 -203 76 -299 171 -69 69 -94 101 -127 170 -93 190 -97 436 -11 617 43 90
149 198 239 241 106 51 165 62 348 62 160 0 163 0 187 25 l25 24 0 1751 0
1750 2435 0 2435 0 1 -2172 c0 -1656 3 -2181 12 -2208 13 -39 51 -62 85 -53
55 14 52 -124 52 2298 l0 2236 -25 24 -24 25 -2486 0 -2485 0 0 279 c0 314 0
314 -75 331 -74 17 -332 11 -413 -10z m338 -2134 l0 -2003 -137 -6 c-227 -10
-366 -63 -500 -191 l-73 -69 0 1871 c0 1607 2 1881 15 1947 41 218 201 388
411 439 32 8 110 15 172 15 l112 1 0 -2004z"/>
<path d="M5405 6604 c-397 -43 -746 -224 -987 -513 -193 -230 -296 -435 -354
-701 -27 -121 -27 -467 -1 -590 62 -289 204 -547 422 -766 297 -298 637 -438
1065 -438 283 0 520 56 725 172 l60 34 25 -33 c14 -18 69 -86 124 -151 l98
-118 -17 -37 c-15 -30 -15 -42 -5 -76 12 -42 19 -49 250 -297 145 -155 453
-489 777 -841 95 -103 189 -200 210 -216 177 -139 407 -121 574 46 108 108
163 255 141 374 -26 137 -36 149 -464 563 -216 208 -502 485 -635 614 -261
252 -320 296 -383 286 -19 -3 -47 -15 -63 -27 l-29 -21 -26 25 c-15 13 -75 61
-134 106 l-107 81 64 84 c212 282 316 588 316 934 -1 207 -35 382 -116 581
-129 318 -412 620 -718 770 -123 60 -290 115 -412 136 -90 16 -325 27 -400 19z
m409 -179 c403 -85 756 -358 943 -728 97 -193 149 -440 140 -657 -26 -619
-443 -1124 -1041 -1262 -128 -29 -394 -36 -533 -15 -449 72 -850 391 -1027
820 -180 433 -123 911 155 1301 212 297 525 492 884 552 106 18 373 12 479
-11z m876 -2555 c71 -55 131 -104 134 -108 7 -12 -130 -146 -142 -138 -14 8
-212 253 -212 261 0 7 81 84 89 85 2 0 61 -45 131 -100z m981 -707 c337 -328
623 -608 635 -622 82 -99 68 -230 -36 -344 -80 -88 -189 -124 -289 -97 -55 15
-103 61 -522 515 -168 182 -403 435 -522 563 -119 128 -217 235 -217 239 0 8
322 340 332 342 3 0 282 -267 619 -596z"/>
<path d="M5315 6190 c-420 -91 -740 -395 -853 -810 -24 -87 -26 -112 -26 -285
0 -175 2 -198 27 -289 51 -188 156 -365 303 -509 424 -417 1109 -422 1543 -12
319 301 431 751 289 1155 -62 174 -138 300 -257 424 -157 162 -320 260 -531
317 -113 31 -373 36 -495 9z m427 -156 c210 -43 421 -180 560 -364 62 -81 140
-239 170 -345 20 -68 23 -103 23 -235 0 -130 -4 -169 -24 -240 -46 -170 -137
-324 -259 -442 -390 -374 -988 -362 -1363 29 -126 131 -204 277 -245 458 -23
103 -23 300 0 402 116 522 615 845 1138 737z"/>
</g>
</svg>
