<?xml version="1.0" standalone="no"?>
<!DOCTYPE svg PUBLIC "-//W3C//DTD SVG 20010904//EN"
 "http://www.w3.org/TR/2001/REC-SVG-20010904/DTD/svg10.dtd">
<svg version="1.0" xmlns="http://www.w3.org/2000/svg"
 width="1024.000000pt" height="1024.000000pt" viewBox="0 0 1024.000000 1024.000000"
 preserveAspectRatio="xMidYMid meet">

<g transform="translate(0.000000,1024.000000) scale(0.100000,-0.100000)"
fill="#000000" stroke="none">
<path d="M3612 8338 c-60 -16 -70 -45 -113 -340 -15 -97 -28 -158 -35 -158 -6
0 -59 -14 -118 -31 -113 -32 -299 -114 -353 -155 l-32 -24 -83 63 c-258 192
-268 199 -307 204 -22 3 -51 3 -66 -1 -34 -9 -401 -369 -427 -420 -25 -48 -20
-101 13 -148 12 -18 71 -99 132 -180 l109 -147 -20 -28 c-49 -70 -138 -279
-188 -445 l-17 -56 -76 -11 c-42 -6 -136 -18 -209 -26 -143 -16 -154 -19 -192
-60 l-25 -27 -3 -281 c-3 -309 2 -348 54 -382 17 -11 81 -23 182 -36 87 -10
184 -22 216 -26 l59 -8 23 -90 c36 -143 116 -334 175 -417 11 -15 17 -33 13
-40 -4 -7 -65 -90 -136 -186 -131 -178 -140 -198 -119 -254 11 -30 394 -414
432 -433 15 -8 41 -15 57 -15 31 0 41 6 242 155 67 50 130 96 140 103 16 12
27 9 87 -27 85 -50 241 -113 358 -144 106 -28 94 -4 130 -265 25 -190 38 -231
82 -259 25 -16 56 -18 325 -17 322 2 348 5 373 53 13 26 29 101 39 186 3 22
13 95 22 162 l18 121 38 6 c21 3 39 6 40 6 13 -4 210 75 315 126 l133 65 140
-108 c189 -145 221 -165 265 -165 49 0 83 26 197 152 53 58 136 144 185 191
92 88 109 118 96 170 -3 13 -61 101 -127 194 -67 94 -126 176 -130 183 -5 8 2
28 17 51 61 92 136 272 172 411 l21 85 123 12 c226 22 349 52 369 90 6 11 12
145 13 319 3 276 2 303 -15 328 -27 42 -74 56 -260 77 -207 24 -240 29 -233
35 21 21 -129 404 -195 496 -22 32 -24 27 52 128 89 118 190 270 196 297 13
49 -19 91 -225 298 l-205 205 -45 0 c-27 0 -57 -7 -73 -18 -57 -37 -329 -235
-334 -243 -3 -5 -24 4 -47 20 -85 58 -274 135 -443 180 l-40 11 -18 112 c-10
62 -25 154 -32 203 -17 112 -27 137 -65 159 -27 16 -61 18 -325 20 -162 0
-307 -2 -322 -6z m494 -124 l81 -7 12 -81 c6 -44 14 -106 16 -136 18 -197 41
-248 120 -266 156 -35 313 -97 439 -174 45 -26 93 -51 108 -55 36 -9 72 12
268 159 l154 117 114 -113 c62 -62 141 -144 174 -181 l61 -68 -20 -22 c-46
-51 -253 -348 -259 -371 -5 -20 6 -46 50 -119 31 -50 74 -132 95 -182 40 -91
91 -251 91 -287 0 -58 33 -76 164 -93 56 -7 154 -21 219 -31 l117 -18 0 -243
0 -243 -22 -4 c-36 -8 -207 -34 -273 -42 -33 -4 -69 -8 -80 -10 -11 -1 -30 -3
-42 -3 -46 -2 -79 -49 -103 -148 -37 -158 -112 -339 -181 -439 -37 -55 -44
-85 -26 -121 19 -35 197 -275 243 -324 l33 -37 -178 -176 c-98 -97 -183 -176
-189 -176 -6 0 -14 4 -17 10 -10 16 -297 225 -342 249 -32 16 -64 13 -98 -10
-85 -58 -283 -143 -405 -174 -36 -9 -82 -21 -102 -26 -59 -15 -89 -81 -105
-228 -3 -31 -13 -105 -22 -166 l-16 -110 -100 -8 c-55 -5 -173 -5 -261 -2
l-162 7 -6 67 c-15 148 -17 168 -22 216 -20 175 -38 204 -139 228 -128 30
-246 74 -384 144 -79 40 -152 73 -161 73 -22 0 -80 -38 -240 -156 -74 -55
-140 -103 -147 -107 -13 -8 -7 -13 -221 197 l-153 149 26 31 c13 17 78 101
144 187 115 150 119 157 112 191 -5 20 -22 56 -40 81 -70 102 -116 217 -187
465 -19 68 -57 112 -97 112 -45 1 -398 49 -408 56 -4 2 -8 114 -9 247 l-1 242
222 32 c235 33 267 44 281 94 61 221 133 395 214 521 28 44 35 62 30 85 -4 16
-69 112 -146 214 l-139 184 177 180 c97 98 178 181 179 184 1 2 10 -5 20 -16
22 -24 224 -175 314 -233 79 -51 98 -50 199 15 114 73 274 139 412 170 44 10
83 24 93 35 22 24 39 107 61 302 l18 157 136 4 c74 1 155 4 180 5 25 1 81 -1
126 -4z"/>
<path d="M3830 7164 c-14 -2 -56 -9 -95 -15 -391 -63 -730 -343 -872 -719
-139 -367 -69 -806 175 -1101 120 -145 211 -218 367 -296 389 -195 856 -154
1208 106 145 107 298 302 367 468 146 349 111 734 -95 1050 -156 238 -408 413
-699 484 -77 19 -298 33 -356 23z m354 -158 c408 -105 707 -457 748 -881 21
-222 -40 -460 -165 -645 -45 -66 -173 -196 -242 -245 -334 -237 -770 -260
-1115 -59 -326 189 -504 520 -487 903 11 241 92 441 254 628 96 110 272 228
418 278 179 61 399 69 589 21z"/>
<path d="M6170 5530 c-42 -17 -46 -21 -57 -71 -7 -30 -20 -105 -29 -168 -10
-62 -22 -114 -28 -116 -128 -31 -305 -93 -333 -116 -12 -11 -5 -27 38 -87 l16
-23 79 32 c70 28 191 66 266 83 50 11 69 47 83 161 13 109 28 176 42 190 11
12 47 15 174 15 156 0 159 0 164 -22 3 -13 14 -86 24 -163 18 -130 22 -142 48
-166 19 -16 57 -32 104 -43 107 -26 192 -60 291 -116 49 -28 96 -50 106 -50
24 0 166 104 276 202 18 17 21 16 65 -22 25 -21 81 -74 124 -117 l77 -79 -84
-113 c-98 -133 -130 -192 -120 -223 3 -12 21 -42 40 -68 43 -60 85 -160 123
-291 33 -112 54 -149 92 -160 13 -4 80 -12 149 -18 69 -6 139 -15 155 -19 l30
-8 3 -166 2 -166 -28 -7 c-16 -3 -96 -14 -177 -25 -183 -23 -187 -26 -216
-155 -29 -135 -75 -247 -133 -324 -35 -47 -34 -87 5 -134 38 -46 159 -246 159
-262 0 -7 -49 -60 -110 -119 l-110 -107 -47 32 c-27 18 -73 51 -103 74 -88 66
-161 115 -174 115 -7 0 -48 -24 -91 -53 -81 -53 -209 -103 -327 -127 -32 -6
-67 -19 -78 -28 -26 -22 -46 -113 -65 -299 -5 -43 -12 -64 -23 -69 -10 -5 -88
-9 -174 -10 l-157 -2 -10 47 c-6 25 -13 69 -16 96 -17 139 -30 202 -50 229 -9
12 -48 26 -112 41 -125 30 -212 63 -317 120 -115 62 -130 61 -235 -21 -46 -37
-109 -84 -139 -105 l-55 -39 -116 112 c-64 61 -118 115 -120 120 -3 10 106
176 177 267 23 30 42 65 42 79 0 14 -15 48 -34 76 -18 28 -42 69 -54 91 -20
40 -75 212 -87 271 -3 17 -18 42 -33 56 -24 22 -42 27 -147 37 -66 7 -137 15
-157 18 l-38 6 0 168 c0 94 4 170 9 174 6 3 71 14 147 25 151 21 172 32 192
96 10 34 10 35 -40 74 -27 22 -53 40 -58 40 -10 0 -20 -26 -20 -54 0 -21 -6
-24 -57 -29 -32 -3 -105 -15 -162 -28 -147 -32 -142 -22 -139 -300 3 -201 5
-219 23 -239 35 -39 75 -51 217 -68 l140 -17 18 -71 c21 -80 66 -193 110 -270
l29 -51 -105 -158 c-145 -222 -149 -197 58 -397 148 -145 165 -158 198 -158
39 0 112 44 244 146 38 30 76 54 83 54 7 0 50 -18 95 -41 85 -43 276 -109 314
-109 19 0 24 -8 33 -53 18 -92 42 -230 47 -267 7 -53 29 -68 119 -81 108 -15
343 -6 389 16 74 35 82 55 116 296 l12 85 60 13 c91 19 219 68 293 112 l66 40
47 -35 c26 -19 56 -44 67 -56 35 -40 165 -121 193 -122 16 -1 37 4 47 10 11 5
86 78 168 160 189 192 187 170 33 397 l-82 120 31 52 c39 64 91 195 115 287
l18 71 153 21 c187 25 190 26 228 70 l31 35 0 204 c0 135 -4 213 -12 230 -22
48 -64 64 -219 81 -79 9 -153 18 -164 20 -16 3 -29 31 -63 137 -24 72 -62 169
-84 214 l-41 82 49 68 c170 241 168 235 105 317 -49 63 -166 176 -247 239 -94
73 -93 74 -308 -100 -43 -35 -82 -63 -88 -63 -5 0 -23 9 -39 20 -44 32 -169
86 -266 116 -48 15 -89 28 -90 29 -1 0 -14 68 -28 151 -15 82 -31 166 -36 187
l-10 37 -232 -1 c-197 -1 -239 -4 -277 -19z"/>
<path d="M6250 4653 c-96 -16 -221 -62 -311 -115 -127 -74 -279 -238 -346
-373 -85 -170 -108 -398 -59 -589 87 -340 338 -585 678 -662 55 -13 104 -15
217 -11 165 6 233 22 368 87 76 36 216 134 253 177 224 259 293 526 215 829
-80 309 -274 515 -585 622 -101 34 -111 36 -255 38 -82 1 -161 -1 -175 -3z
m335 -142 c44 -12 123 -42 175 -68 78 -39 111 -63 182 -134 75 -75 94 -101
137 -191 64 -133 85 -233 78 -372 -6 -123 -25 -196 -77 -301 -135 -272 -419
-432 -734 -411 -312 20 -573 223 -678 526 -37 107 -43 285 -14 401 36 143 134
297 251 392 74 60 215 130 315 155 107 28 262 29 365 3z"/>
</g>
</svg>
