<?xml version="1.0" standalone="no"?>
<!DOCTYPE svg PUBLIC "-//W3C//DTD SVG 20010904//EN"
 "http://www.w3.org/TR/2001/REC-SVG-20010904/DTD/svg10.dtd">
<svg version="1.0" xmlns="http://www.w3.org/2000/svg"
 width="1024.000000pt" height="1024.000000pt" viewBox="0 0 1024.000000 1024.000000"
 preserveAspectRatio="xMidYMid meet">

<g transform="translate(0.000000,1024.000000) scale(0.100000,-0.100000)"
fill="#000000" stroke="none">
<path d="M3719 8784 l-24 -26 -3 -461 -3 -462 -392 1 c-292 1 -408 -2 -454
-11 -182 -39 -341 -180 -403 -358 -28 -79 -28 -74 -29 -519 l-1 -398 -468 0
-469 0 -21 -23 c-30 -32 -29 -81 3 -112 l24 -25 466 0 465 0 0 -371 0 -371
-457 2 c-252 1 -463 2 -470 1 -24 -2 -53 -45 -53 -78 0 -24 8 -41 26 -58 l27
-25 463 0 464 0 0 -370 0 -370 -465 0 -466 0 -24 -25 c-33 -32 -33 -78 0 -110
l24 -25 466 0 465 0 0 -370 0 -370 -465 0 -466 0 -24 -25 c-32 -31 -32 -75 -1
-112 l24 -28 464 -2 463 -1 -3 -384 c-4 -359 -2 -388 17 -460 44 -166 137
-285 282 -358 112 -57 139 -60 583 -60 l406 0 0 -462 c0 -497 0 -498 52 -527
37 -21 78 -5 100 38 16 32 17 72 11 493 l-6 458 371 0 372 0 0 -462 c0 -350 3
-469 13 -488 17 -34 57 -55 90 -46 55 13 55 11 59 523 l3 473 367 0 367 0 1
-472 c0 -443 1 -475 19 -498 28 -38 74 -39 111 -1 l30 29 0 471 0 471 370 0
369 0 3 -476 3 -476 28 -24 c15 -13 39 -24 52 -24 13 0 37 11 52 24 l28 24 3
476 3 476 402 0 c441 0 464 2 583 60 106 52 204 157 247 266 42 109 48 182 46
567 l-2 368 462 2 463 2 24 28 c33 39 32 89 -2 116 -26 21 -36 21 -488 21
l-461 0 0 370 0 370 461 0 c452 0 462 0 488 21 37 29 37 89 0 118 -26 21 -36
21 -490 21 l-464 0 0 370 0 369 471 3 471 3 19 24 c35 43 13 129 -33 132 -7 0
-219 0 -470 -1 l-458 -1 0 370 0 371 465 0 466 0 24 25 c33 32 34 83 2 113
-23 22 -25 22 -490 22 -256 0 -468 4 -471 9 -3 4 -6 193 -6 420 -1 338 -4 421
-17 464 -65 222 -225 362 -448 391 -22 3 -210 5 -417 6 l-377 0 -3 454 c-3
444 -3 455 -24 483 -22 30 -50 39 -91 28 -51 -12 -53 -35 -53 -522 l0 -448
-370 3 -369 2 -3 466 -3 466 -24 19 c-35 28 -85 25 -110 -7 -21 -26 -21 -36
-21 -485 l0 -459 -365 -2 -364 -3 -3 457 c-3 446 -3 457 -24 485 -35 47 -103
44 -129 -7 -13 -25 -15 -96 -15 -479 l0 -451 -366 -2 c-201 -2 -368 -1 -370 1
-2 2 -4 210 -4 461 0 447 0 458 -21 484 -28 35 -77 36 -110 0z m3642 -1118
c143 -43 233 -131 278 -269 20 -61 20 -100 26 -2272 5 -1961 4 -2215 -9 -2258
-38 -120 -111 -207 -214 -255 l-57 -27 -2260 0 -2260 0 -57 27 c-63 29 -139
95 -174 149 -12 20 -32 65 -43 99 -21 63 -21 68 -21 2261 l0 2198 26 73 c31
85 37 95 105 165 55 56 114 90 194 109 79 19 4402 19 4466 0z"/>
<path d="M3590 6871 c-88 -27 -169 -96 -206 -175 l-24 -51 0 -1525 0 -1525 24
-50 c31 -68 113 -141 180 -160 46 -13 242 -15 1576 -13 l1525 3 42 23 c67 35
110 79 143 144 l30 61 0 1521 0 1521 -24 50 c-27 60 -91 124 -155 156 l-46 24
-1520 2 c-836 1 -1531 -2 -1545 -6z m3057 -178 c80 -51 74 80 71 -1583 -3
-1632 1 -1521 -65 -1560 -34 -20 -51 -20 -1538 -20 l-1503 0 -32 26 c-65 55
-60 -63 -60 1572 l0 1489 23 34 c12 19 38 42 57 51 33 17 126 18 1520 18
l1486 0 41 -27z"/>
</g>
</svg>
