<?xml version="1.0" standalone="no"?>
<!DOCTYPE svg PUBLIC "-//W3C//DTD SVG 20010904//EN"
 "http://www.w3.org/TR/2001/REC-SVG-20010904/DTD/svg10.dtd">
<svg version="1.0" xmlns="http://www.w3.org/2000/svg"
 width="1024.000000pt" height="1024.000000pt" viewBox="0 0 1024.000000 1024.000000"
 preserveAspectRatio="xMidYMid meet">

<g transform="translate(0.000000,1024.000000) scale(0.100000,-0.100000)"
fill="#000000" stroke="none">
<path d="M2848 7930 c-346 -63 -621 -326 -703 -671 -83 -352 72 -728 384 -938
151 -100 288 -142 471 -142 368 0 700 262 816 646 24 79 27 107 28 235 1 122
-3 158 -22 223 -49 170 -134 310 -262 430 -111 104 -215 161 -366 203 -68 18
-276 27 -346 14z m269 -186 c181 -37 342 -147 444 -302 92 -140 129 -293 109
-447 -23 -182 -89 -317 -219 -445 -135 -134 -275 -193 -461 -193 -117 -1 -182
14 -285 64 -100 47 -182 112 -243 190 -161 206 -202 448 -117 692 111 321 442
510 772 441z"/>
<path d="M7075 7926 c-317 -73 -567 -313 -657 -631 -19 -68 -23 -103 -22 -230
0 -134 3 -160 27 -238 109 -355 398 -608 737 -646 409 -46 800 220 922 626 29
99 36 311 14 424 -32 160 -109 307 -225 431 -119 127 -238 201 -397 249 -90
27 -310 35 -399 15z m379 -200 c472 -150 639 -743 319 -1134 -89 -109 -250
-202 -394 -228 -143 -26 -278 -5 -428 67 -69 33 -100 55 -171 127 -143 145
-213 311 -213 507 1 125 19 202 79 324 143 291 493 437 808 337z"/>
<path d="M4925 7864 c-375 -67 -693 -310 -860 -656 -158 -328 -128 -764 76
-1094 67 -109 233 -280 339 -349 218 -142 450 -204 718 -192 212 9 380 64 557
182 284 189 471 487 516 822 17 127 6 315 -25 436 -28 111 -93 254 -157 348
-100 148 -292 315 -457 398 -208 105 -481 145 -707 105z m410 -183 c377 -92
669 -393 747 -769 26 -124 21 -306 -12 -427 -90 -335 -347 -597 -686 -702 -82
-25 -102 -27 -259 -27 -156 0 -177 2 -256 27 -120 37 -189 69 -283 131 -482
321 -589 979 -232 1422 163 203 385 325 671 368 59 9 231 -4 310 -23z"/>
<path d="M7665 6059 c-44 -5 -120 -20 -170 -35 -227 -67 -259 -67 -480 -8
-133 36 -147 38 -295 38 -175 0 -264 -17 -398 -79 -204 -95 -396 -282 -484
-474 l-22 -49 -63 -6 c-35 -4 -116 -20 -180 -37 -220 -58 -278 -69 -389 -76
-132 -7 -236 6 -378 49 -160 48 -276 76 -339 83 -35 4 -57 11 -57 19 0 29
-110 187 -184 264 -198 206 -431 303 -726 303 -108 -1 -142 -5 -250 -33 -108
-27 -143 -32 -255 -32 -121 -1 -138 1 -245 34 -112 34 -119 35 -275 34 -139
-1 -173 -4 -257 -27 -366 -97 -661 -371 -779 -722 l-24 -70 -3 -736 -3 -736
22 -59 c29 -76 100 -152 187 -197 170 -89 508 -176 862 -222 104 -14 443 -44
492 -45 15 0 17 -26 20 -287 3 -287 3 -288 29 -344 79 -169 269 -267 734 -379
405 -98 813 -140 1367 -140 619 0 1105 57 1528 180 347 100 492 185 562 328
l33 66 3 288 c2 215 6 288 15 288 7 0 75 5 152 10 315 23 589 63 819 121 346
86 500 169 566 304 l25 50 3 734 c2 716 2 736 -18 814 -124 478 -650 839
-1145 786z m-4965 -207 c206 -64 334 -66 550 -10 111 28 141 32 265 32 120 1
151 -2 215 -22 187 -59 340 -170 451 -326 27 -38 47 -72 44 -76 -2 -3 -37 -12
-77 -19 -266 -47 -560 -199 -765 -394 -124 -119 -210 -235 -283 -382 -102
-205 -103 -212 -107 -763 l-4 -473 -92 6 c-156 11 -440 44 -554 65 -59 11
-111 20 -115 20 -4 0 -9 282 -10 626 l-3 626 -28 24 c-38 32 -72 31 -108 -5
l-29 -29 0 -601 c0 -517 -2 -601 -14 -601 -29 0 -252 72 -312 101 -71 33 -118
82 -133 136 -7 25 -11 270 -11 704 0 625 1 670 19 741 67 259 295 490 591 599
183 66 340 73 510 21z m4088 28 c51 -6 145 -24 210 -42 104 -29 132 -33 247
-33 123 0 138 2 265 40 122 36 146 40 245 39 336 0 683 -212 832 -507 71 -142
67 -89 71 -857 2 -488 0 -706 -8 -733 -26 -88 -108 -142 -307 -202 -65 -20
-126 -38 -135 -41 -17 -5 -18 28 -18 601 l0 607 -29 29 c-36 36 -70 37 -108 5
l-28 -24 -3 -625 -2 -625 -48 -11 c-126 -27 -602 -81 -712 -81 -5 0 -10 217
-12 483 -4 551 -4 548 -97 742 -179 375 -513 645 -939 759 -50 13 -117 28
-147 31 -30 4 -55 9 -55 12 0 21 90 135 164 208 130 129 276 202 448 224 35 5
65 9 68 10 3 0 47 -4 98 -9z m-2093 -648 c316 -102 502 -106 825 -18 191 52
235 59 365 59 131 -1 215 -16 359 -64 405 -135 714 -438 808 -792 22 -80 22
-98 26 -862 2 -549 0 -795 -8 -831 -15 -69 -62 -122 -147 -167 -64 -33 -326
-126 -400 -142 l-33 -7 0 669 c0 616 -1 671 -18 703 -32 65 -117 61 -142 -6
-6 -15 -10 -300 -10 -713 l0 -688 -92 -17 c-694 -127 -1631 -122 -2258 12
l-35 8 -5 690 c-5 643 -6 692 -23 717 -26 40 -59 53 -97 37 -17 -7 -36 -22
-43 -34 -9 -16 -13 -194 -17 -698 l-5 -676 -153 44 c-164 47 -296 103 -350
149 -18 15 -43 46 -55 69 l-22 41 0 800 c0 791 0 801 22 886 29 116 61 184
140 304 125 187 292 329 514 434 223 106 372 142 579 138 139 -3 150 -5 275
-45z"/>
</g>
</svg>
