<?xml version="1.0" standalone="no"?>
<!DOCTYPE svg PUBLIC "-//W3C//DTD SVG 20010904//EN"
 "http://www.w3.org/TR/2001/REC-SVG-20010904/DTD/svg10.dtd">
<svg version="1.0" xmlns="http://www.w3.org/2000/svg"
 width="1024.000000pt" height="1024.000000pt" viewBox="0 0 1024.000000 1024.000000"
 preserveAspectRatio="xMidYMid meet">

<g transform="translate(0.000000,1024.000000) scale(0.100000,-0.100000)"
fill="#000000" stroke="none">
<path d="M2780 8623 c-68 -10 -218 -47 -242 -59 -60 -31 -82 -88 -54 -142 8
-15 186 -198 395 -407 l381 -380 0 -101 c0 -175 -51 -289 -188 -415 -138 -128
-304 -178 -447 -134 -44 13 -84 50 -425 390 l-376 375 -46 0 c-57 0 -88 -23
-116 -87 -40 -93 -57 -214 -57 -413 0 -169 3 -195 28 -300 36 -147 71 -233
148 -368 82 -141 126 -198 246 -313 205 -196 432 -312 718 -365 154 -29 407
-27 542 5 l102 24 43 -36 c24 -20 227 -218 453 -440 l410 -404 -45 -49 c-25
-27 -72 -75 -106 -107 l-62 -57 -56 34 c-107 65 -199 71 -303 21 -50 -24 -181
-150 -994 -964 -991 -992 -1015 -1017 -1066 -1160 -35 -96 -47 -207 -32 -316
27 -209 81 -298 327 -532 137 -130 185 -169 244 -199 90 -46 218 -82 318 -90
145 -12 297 45 435 162 106 91 763 739 1370 1353 568 575 560 565 560 716 0
83 -3 96 -36 166 l-37 77 103 102 c90 90 105 101 123 91 11 -6 204 -198 428
-427 368 -374 409 -419 408 -447 0 -18 -10 -88 -22 -156 -27 -151 -30 -364 -7
-497 64 -365 310 -716 642 -916 136 -83 341 -155 497 -177 172 -24 416 -7 556
40 123 40 150 63 150 128 l0 45 -377 378 -378 378 0 128 0 128 39 79 c29 60
58 99 115 156 118 117 219 156 389 147 l83 -4 377 -377 c371 -370 378 -377
417 -377 89 1 127 78 160 323 19 149 19 241 0 376 -23 156 -58 269 -125 400
-102 199 -227 345 -419 487 -280 208 -693 301 -1064 240 l-118 -20 -126 135
c-70 73 -301 309 -514 523 l-387 389 788 786 c434 432 810 807 837 833 l48 47
130 16 c175 21 280 44 304 67 33 30 81 100 369 535 177 267 275 423 279 446 3
21 -1 45 -10 63 -8 16 -98 111 -199 211 -192 190 -218 207 -280 188 -58 -19
-952 -607 -989 -651 -10 -12 -13 -62 -14 -198 0 -162 -2 -185 -20 -217 -11
-19 -394 -408 -851 -862 l-832 -827 -460 467 c-253 258 -481 493 -506 524
l-46 56 27 99 c25 91 27 114 27 299 0 174 -3 212 -22 294 -33 139 -57 204
-117 326 -68 137 -155 253 -276 371 -266 256 -582 376 -984 373 -88 -1 -171
-3 -185 -6z m460 -197 c500 -107 859 -490 937 -1001 19 -125 13 -363 -11 -445
-37 -125 -20 -207 65 -307 22 -26 402 -410 843 -853 441 -443 986 -993 1211
-1222 487 -494 441 -463 626 -428 104 20 141 22 272 17 126 -4 171 -10 267
-35 240 -64 412 -161 573 -324 251 -256 349 -557 305 -939 l-11 -102 -312 315
c-349 353 -365 365 -497 377 -205 18 -376 -43 -535 -193 -172 -162 -260 -379
-233 -574 20 -143 27 -153 382 -509 210 -210 317 -324 307 -327 -29 -10 -196
-26 -269 -26 -235 1 -488 86 -678 230 -208 156 -379 405 -437 634 -49 195 -51
375 -5 603 25 124 22 171 -19 234 -31 50 -1771 1805 -2214 2235 -159 153 -303
287 -320 297 -41 22 -86 22 -221 -4 -96 -19 -133 -21 -276 -16 -176 6 -275 24
-410 72 -491 178 -814 658 -786 1170 3 66 10 136 14 155 l8 34 324 -320 c179
-176 341 -330 360 -341 83 -50 231 -67 352 -42 151 32 350 164 454 302 115
154 169 336 144 492 -22 139 -29 148 -387 507 -180 180 -324 330 -321 334 12
11 192 23 308 19 63 -2 149 -11 190 -19z m4937 -178 c73 -73 133 -137 132
-143 0 -5 -125 -197 -277 -425 l-277 -415 -163 -12 c-90 -7 -180 -17 -200 -24
-29 -9 -226 -200 -895 -868 l-857 -855 -96 94 -95 95 704 700 c865 861 993
992 1017 1047 14 34 20 81 26 215 l7 173 121 78 c66 43 171 109 231 146 61 37
193 125 295 196 102 71 187 130 190 130 3 0 64 -60 137 -132z m-3277 -3809 c0
-3 -50 -53 -111 -109 l-110 -103 -236 235 c-129 130 -234 240 -232 246 2 6 49
58 103 117 l99 107 244 -244 c133 -133 243 -246 243 -249z m-978 278 c59 -36
735 -711 760 -760 29 -56 29 -128 0 -184 -14 -27 -344 -365 -934 -956 -897
-899 -914 -916 -989 -951 -156 -74 -318 -65 -494 27 -44 23 -98 70 -199 172
-76 77 -156 163 -178 192 -54 70 -78 152 -78 263 0 118 13 181 57 270 35 72
70 108 947 984 501 500 929 922 950 938 49 35 105 37 158 5z"/>
<path d="M2968 3463 c-766 -766 -828 -830 -828 -861 0 -24 9 -42 29 -63 31
-31 62 -36 97 -16 26 14 1579 1576 1611 1620 13 17 23 43 23 58 0 38 -45 89
-78 89 -22 0 -174 -148 -854 -827z"/>
<path d="M3338 3092 c-782 -783 -828 -830 -828 -863 0 -78 80 -104 147 -47 21
17 390 383 821 812 529 529 785 791 792 812 19 56 -22 114 -80 114 -20 0 -191
-166 -852 -828z"/>
</g>
</svg>
